<svg width="202" height="51" viewBox="0 0 202 51" fill="none" xmlns="http://www.w3.org/2000/svg">
<path d="M3.51653 1.61608C5.93708 1.06152 11.1601 1.59627 13.2468 2.62475C13.3303 3.29815 12.9243 3.66314 12.374 3.9574C11.8123 4.25732 11.2634 4.57845 10.7244 4.8812C10.7244 5.29287 10.6353 5.61826 10.74 5.85734C11.2309 6.97919 11.2436 8.14207 11.1616 9.32759C11.0682 10.6928 11.238 12.0353 11.5775 13.3552C12.3259 16.2596 13.152 19.1442 13.8212 22.0655C14.3079 24.1833 14.5639 26.3521 14.9798 28.4883C15.2048 29.6384 15.5372 30.7673 15.8527 31.8977C15.905 32.0844 16.1187 32.2273 16.379 32.5343C16.9746 29.2932 17.7739 26.2799 17.8503 23.1464C17.8644 22.5578 17.9323 21.9707 17.9762 21.3836C18.0469 20.4216 18.2563 19.5205 19.1221 18.932C18.9424 18.4425 18.7175 18.0308 18.651 17.5937C18.5887 17.1976 18.658 16.7675 18.7387 16.3657C19.132 14.4064 19.5125 12.4413 19.9681 10.4961C20.466 8.37409 20.9484 6.2577 21.179 4.08331C21.2767 3.16093 21.5794 2.26118 21.7987 1.30484C24.2786 1.16054 26.6454 0.60174 28.9882 1.38831C29.1311 2.09849 28.4138 2.07019 28.1196 2.57949C27.9809 3.58109 28.4647 4.63504 28.5496 5.75831C28.9811 6.1615 29.4041 6.55761 29.7634 6.89431C29.7832 7.12491 29.8469 7.2777 29.796 7.35126C28.8863 8.67966 28.7166 10.1708 28.7618 11.7269C28.8014 13.0808 28.7449 14.4361 28.8113 15.7871C28.8481 16.5425 29.0476 17.2909 29.1777 18.0633C29.779 18.3788 30.7438 18.3392 30.9405 18.9857C31.1003 19.5148 30.342 19.8897 30.2176 20.3636C30.1044 20.8008 30.2317 21.2959 30.2275 21.7656C30.1935 24.8284 30.6179 27.8545 30.9277 30.8904C30.9617 31.237 31.031 31.6162 31.2078 31.9047C31.6379 32.6093 31.6704 33.2897 31.4922 34.0947C31.3592 34.6959 31.5233 35.3722 31.6054 36.0088C31.9293 38.5142 32.3269 41.0126 32.573 43.5265C32.648 44.2862 33.3455 44.5833 33.4629 45.1336C33.644 45.9866 34.3117 45.9923 34.9639 46.3389C34.7644 46.5582 34.6215 46.7944 34.4121 46.9302C34.0217 47.1835 33.593 47.3801 33.1389 47.622C33.0569 48.1483 32.9762 48.6618 32.8998 49.157C32.7923 49.2489 32.7131 49.3706 32.6141 49.3932C30.8796 49.7809 29.141 50.0256 27.2552 49.4003C26.968 47.6093 26.6638 45.7164 26.3583 43.8165C26.934 43.4317 28.0078 43.4331 28.0234 42.7017C28.0375 42.0085 26.9694 41.9307 26.337 41.4667C26.2564 40.0477 26.1786 38.5255 26.0824 37.0061C26.0187 36.0088 25.89 35.0128 25.8645 34.0141C25.8461 33.3237 25.9522 32.6305 26.0187 31.7237C25.907 31.5058 25.699 31.097 25.4953 30.6952C25.7542 30.0798 26.3696 29.5365 26.2635 28.8617C26.0046 27.2023 25.1077 26.0507 24.9902 24.5214C24.8615 22.8337 24.6804 21.1516 24.4923 19.147C23.7411 20.3354 23.6434 21.4049 23.4907 22.415C23.2091 24.2739 23.0068 26.1526 22.8838 28.0299C22.6433 31.6841 21.9373 35.259 21.1946 38.8339C20.5849 41.7694 20.0402 44.7177 19.4432 47.6546C19.3173 48.2756 19.3569 48.9674 18.7443 49.5305C17.5532 49.6507 16.2743 49.7795 15.0548 49.9011C14.2456 48.8344 13.2228 46.0079 12.7573 43.4062C12.3556 41.1597 11.9184 38.9033 12.5197 36.5336C12.7404 36.412 13.0431 36.2436 13.3558 36.0696C13.3062 35.9791 13.2822 35.8588 13.2157 35.8249C12.6965 35.5603 12.1688 35.3142 11.8038 35.1387C11.0031 31.933 10.2236 28.9169 9.50495 25.8866C9.16542 24.4578 8.96312 22.9992 8.65896 21.5619C8.54437 21.0158 8.46373 20.4132 7.78326 19.9633C7.373 21.7953 7.44373 23.5481 7.27821 25.2698C7.10986 27.0212 7.85399 28.6368 7.75497 30.4985C7.67291 32.0674 6.92737 33.335 6.8821 34.8006C6.82692 36.5082 6.84814 38.2171 6.83541 39.9261C6.82409 41.5063 7.19333 42.9436 8.34773 44.1093C8.5472 44.3116 8.65471 44.6031 8.76648 44.7884C8.77355 45.6344 7.92049 45.6245 7.63755 46.1706C7.79599 47.4622 6.51003 48.2615 6.4874 49.4809C2.87284 50.0822 2.30979 50.0992 0.885188 49.6578C0.82577 49.5588 0.722499 49.4626 0.715425 49.3593C0.50605 46.5964 0.334871 43.8278 0.957338 41.0975C1.17096 40.1652 1.29121 39.2541 1.20915 38.3034C1.16388 37.7786 1.21057 37.2452 1.21623 36.7161C1.22472 35.8857 1.77928 35.4556 2.02826 34.4837C2.15842 33.9702 1.60103 33.6604 1.49068 33.4468C1.56566 30.7206 1.60951 28.1346 1.7142 25.5499C1.81747 23.0219 1.73259 20.4514 2.18671 17.9827C2.66063 15.4094 1.95187 12.7964 2.74976 10.1821C3.41043 9.73502 4.95669 8.69098 4.95669 8.69098C4.90718 7.87045 3.5618 7.97655 2.77523 7.57478C2.75825 7.09095 2.61819 6.54488 2.74552 6.06954C3.14022 4.60109 2.66488 2.98126 3.51653 1.61608Z" fill="white"/>
<path d="M101.117 35.5621C101.758 34.6977 101.923 33.7456 102.056 32.7978C102.413 30.2372 102.722 27.6709 103.048 25.106C103.077 24.8726 103.107 24.6364 103.103 24.4029C103.044 21.732 103.59 19.1417 104.072 16.5372C104.253 15.5653 104.191 14.5482 104.24 13.5084C104.777 13.1603 105.307 12.8166 105.87 12.4502C105.7 11.5886 104.767 11.5561 104.32 10.7554C104.458 10.0876 104.561 9.21475 104.827 8.39281C105.177 7.3134 105.34 6.22974 105.368 5.0994C105.392 4.10911 105.539 3.12024 105.628 2.17239C107.259 1.80174 109.4 1.78193 110.611 2.10731C111.416 3.40459 111.373 5.00744 111.941 6.39385C112.596 6.62303 113.19 6.83099 113.843 7.06017C113.734 8.23578 112.542 8.44799 112.041 9.42837C112.342 10.9435 112.55 12.6454 113.033 14.2652C113.894 17.1569 114.099 20.1574 114.674 23.0943C115.395 26.7768 115.968 30.4861 116.668 34.5477C117.028 33.5575 117.217 32.9067 117.268 32.2121C117.335 31.3194 117.418 30.431 118.362 29.8821C117.22 28.5296 117.571 27.0795 117.782 25.7356C118.209 22.9996 118.537 20.2635 118.711 17.4978C118.844 15.3899 119.209 13.2962 119.477 11.1515C119.822 10.9619 120.174 10.7681 120.518 10.5799C120.406 9.88815 120.55 9.14685 119.753 8.63331C120.041 6.34433 120.33 4.01715 120.64 1.6928C120.668 1.47636 120.84 1.27971 120.978 1.01516C122.797 0.749202 124.592 0.828424 126.486 1.34054C126.61 1.9234 126.738 2.53597 126.859 3.10609C127.375 4.07799 128.676 4.01857 129.163 4.95934C129.085 5.87465 128.057 5.78836 127.666 6.47731C127.784 6.73337 127.921 7.03046 128.096 7.4096C127.727 7.57936 127.364 7.73357 127.01 7.9104C126.113 8.35603 125.523 9.01104 125.394 10.0622C125.128 12.2139 124.483 14.3062 124.596 16.5259C124.653 17.6181 124.275 18.7286 124.132 19.8349C124.026 20.6512 123.946 21.4731 123.917 22.295C123.879 23.3815 124.239 24.2516 125.36 24.6703C125.601 24.7594 125.778 25.0169 126.146 25.3381C125.133 25.8035 124.301 26.1869 123.453 26.5759C123.25 27.262 123.339 28.0076 122.742 28.5438C122.528 28.7362 122.524 29.1931 122.476 29.5369C121.894 33.6112 121.338 37.6912 120.74 41.7641C120.475 43.5622 120.13 45.3475 119.85 46.9773C120.187 48.0157 121.108 48.0256 121.8 48.583C121.613 48.7782 121.473 49.0357 121.258 49.1333C119.737 49.8321 116.7 50.0995 114.736 49.7062C114.131 46.3025 113.375 42.8761 113.243 39.1582C113.669 38.8626 114.221 38.4792 114.753 38.1099C114.562 37.5327 114.119 37.5695 113.715 37.5243C113.016 37.4479 112.627 37.0008 112.618 36.3543C112.608 35.6682 112.276 35.1348 112.068 34.5322C111.726 33.5419 111.573 32.4837 111.356 31.4524C111.127 30.3588 110.905 29.2624 110.703 28.1646C110.469 26.8942 110.155 25.6309 110.241 24.3223C110.292 23.5683 110.343 22.8142 110.414 21.7773C109.347 20.1207 109.38 17.8501 108.762 15.7393C108.298 17.3577 108.119 18.962 107.986 20.5719C107.876 21.9201 107.81 23.2712 107.696 24.618C107.667 24.9632 107.528 25.2999 107.449 25.6422C107.3 26.2718 107.155 26.9013 107.017 27.5337C106.699 28.988 106.964 30.2202 108.354 31.028C108.435 31.0747 108.455 31.226 108.561 31.451C107.954 31.7311 107.347 32.0126 106.674 32.3238C105.624 36.9018 105.086 41.5604 104.512 46.2614C104.983 46.5981 105.4 46.8938 105.972 47.3012C105.403 47.5644 104.963 47.7667 104.453 48.0015C104.283 48.5589 104.099 49.1644 103.894 49.8406C102.273 49.9948 100.715 49.9764 99.0456 49.5747C98.8942 49.0852 98.7032 48.5999 98.5971 48.0977C98.4387 47.3493 98.4373 46.5571 98.1982 45.8399C97.7624 44.5284 97.8049 43.3019 98.4924 42.1814C98.4061 41.5731 97.6309 41.4076 97.7978 40.7441C97.836 40.5899 97.7922 40.3735 97.7059 40.2362C96.4737 38.2755 96.5232 35.978 95.9997 33.8319C95.9318 33.549 95.9318 33.242 95.8257 32.9746C95.1863 31.3788 94.9189 29.6911 94.5426 28.0274C94.3021 26.9635 94.1521 25.945 94.7619 24.9717C92.6625 20.7714 92.4573 16.1906 91.4515 11.8008C91.9551 11.2859 93.0062 11.0496 92.9341 10.2829C92.845 9.3251 91.4458 9.24305 90.7894 8.78469C90.3919 6.64849 90.0071 4.58445 89.611 2.4525C89.9788 2.29405 90.2263 2.12004 90.4937 2.08609C92.0174 1.8852 93.5452 1.84701 95.0674 2.12146C95.298 2.16249 95.6192 2.16673 95.7281 2.31528C96.2105 2.96462 96.9377 2.96038 97.6054 3.14429C97.7384 3.17965 97.8233 3.39469 97.9987 3.60972C97.5686 4.07515 97.1442 4.53493 96.6321 5.08949C96.9547 5.42195 97.256 5.73177 97.6323 6.1194C96.6081 7.22993 96.6307 8.53994 96.9334 9.90371C97.4569 12.2521 97.9647 14.6047 98.4854 16.9829C99.0696 17.3167 99.6214 17.6322 100.097 17.9038C100.524 19.0059 99.528 19.2832 99.0682 20.0202C99.1545 20.4206 99.2422 20.9341 99.378 21.4349C99.951 23.5442 100.312 25.6776 100.306 27.8746C100.305 28.7503 100.465 29.6274 100.559 30.5045C100.742 32.1909 100.93 33.8758 101.117 35.5621Z" fill="white"/>
<path d="M147.454 20.4548C147.518 17.5292 147.396 14.7083 146.714 11.9426C146.531 11.2041 146.376 10.4826 146.601 9.82476C146.056 9.21502 145.544 8.73261 145.138 8.17239C143.788 6.3064 141.74 6.51012 140.375 7.73666C139.496 8.52748 138.739 9.38337 138.316 10.5505C137.872 11.777 137.47 13.0022 137.349 14.2966C137.161 16.2885 137.026 18.2846 136.872 20.2794C136.858 20.4534 136.871 20.6274 136.871 20.7561C137.11 21.1494 137.323 21.4988 137.52 21.8228C137.434 22.2019 137.356 22.5372 137.292 22.8173C137.701 23.229 138.057 23.5869 138.492 24.0241C137.893 24.4159 137.412 24.7314 136.94 25.0412C136.882 25.3114 136.771 25.5463 136.791 25.7684C136.967 27.7659 136.941 29.7607 136.773 31.7582C136.729 32.2831 136.718 32.8277 136.8 33.3455C137.138 35.4973 137.469 37.6519 137.909 39.7838C138.084 40.6326 138.444 41.48 138.884 42.2298C139.885 43.9331 141.675 44.458 143.259 43.5738C143.657 43.3517 143.996 42.9966 144.306 42.6514C145.639 41.1716 146.489 39.4499 146.73 37.6052C147.198 37.0591 147.568 36.6262 147.965 36.165C147.615 35.7901 147.342 35.4987 147.066 35.2016C146.895 33.6327 147.42 32.1572 147.554 30.642C147.687 29.1269 147.74 27.6061 147.82 26.1857C148.352 25.6156 149.323 25.6609 149.31 24.7074C148.862 24.2617 148.414 23.8189 148.017 23.4228C148.164 22.8187 148.273 22.3745 148.368 21.9911C148.048 21.4536 147.778 20.998 147.454 20.4548ZM153.398 7.25425C153.205 7.81871 153.076 8.19502 152.917 8.6548C153.81 10.8504 154.063 13.2582 154.291 15.6505C154.42 17.0086 154.71 18.1828 155.815 19.067C156.082 19.282 156.258 19.6102 156.446 19.8493C156.601 20.4251 156.35 20.7943 155.996 21.1466C155.298 21.8398 154.98 22.6886 154.895 23.669C154.747 25.368 154.525 27.0614 154.353 28.7591C154.21 30.1624 154.082 31.5687 153.974 32.9749C153.888 34.0868 153.845 35.203 153.783 36.315C154.254 36.663 154.662 36.9629 155.027 37.2317C154.874 38.1923 153.93 38.1866 153.492 38.8345C153.544 39.0991 153.609 39.4301 153.696 39.863C152.674 40.5803 152.25 41.7078 151.838 42.882C151.018 45.2233 149.676 47.1869 147.409 48.3866C147.203 48.4955 147.014 48.637 146.756 48.8025C146.819 49.1349 146.88 49.4632 146.94 49.7928C146.853 49.8593 146.773 49.9625 146.674 49.988C144.84 50.4563 142.957 50.4775 141.082 50.5242C140.566 50.5369 140.021 50.4138 139.526 50.2469C136.984 49.3896 133.226 47.0596 132.24 43.8624C132.629 43.5483 133.058 43.2031 133.498 42.848C132.708 42.2086 131.984 41.6286 131.268 41.0386C130.803 40.6538 130.509 40.1785 130.356 39.5716C129.907 37.8004 129.518 36.0235 129.399 34.1929C129.341 33.296 129.375 32.45 129.814 31.6238C130.25 30.8033 130.12 29.8922 129.95 29.0279C129.572 27.0982 129.559 25.2138 129.951 23.2573C130.364 21.1918 130.644 19.0613 130.394 16.9421C130.238 15.6363 130.517 14.6305 131.64 13.8821C131.918 13.6954 132.092 13.3516 132.424 12.9456C131.838 12.7857 131.362 12.6556 130.878 12.5226C130.845 12.4264 130.752 12.2962 130.782 12.2113C131.72 9.55455 132.493 6.80862 134.103 4.45881C135.446 2.49804 137.332 1.23895 139.745 0.898013C140.733 0.757958 141.724 0.538679 142.715 0.525947C145.722 0.490579 148.232 1.54312 149.925 4.14757C150.77 5.4491 151.753 6.58651 153.398 7.25425Z" fill="white"/>
<path d="M73.3186 12.6361C73.4375 13.8329 72.3241 14.1286 71.9379 14.8883C71.9138 16.1955 71.8007 17.4758 72.1883 18.7575C72.3298 19.2229 72.276 19.8666 72.0553 20.2967C71.5375 21.2997 71.5177 22.3423 71.5786 23.3977C71.6804 25.2114 71.8459 27.0208 71.9803 28.7707C72.4995 29.1555 72.907 29.4597 73.4021 29.8261C73.1262 30.1755 72.9324 30.4542 72.7047 30.7004C72.4684 30.955 72.1968 31.1785 71.8756 31.4742C71.8007 33.1563 71.6932 34.8539 71.6691 36.5544C71.662 37.0566 71.7894 37.6183 72.0313 38.054C72.4458 38.8038 72.4514 39.4517 72.0596 40.2114C71.5022 41.2894 71.4753 42.4353 71.8785 43.717C72.675 43.717 73.4431 43.7962 74.1901 43.7015C75.8354 43.4949 77.3109 42.7211 78.2276 41.4125C79.068 40.2128 79.8602 38.9962 80.8364 38.1063C80.9792 35.7197 81.2169 33.4944 81.2013 31.2705C81.1929 30.0949 81.8889 29.2079 82.0431 28.1242C82.0983 27.7465 82.5538 27.4254 82.8806 27.0094C82.4194 26.7081 81.9992 26.4322 81.5267 26.1238C81.4616 24.6186 81.4121 23.153 81.3315 21.6888C81.2593 20.3971 81.2296 19.097 81.0344 17.8238C80.8873 16.8675 80.8562 15.9805 81.3754 15.1967C80.7104 14.1527 80.0385 13.1992 79.5461 12.1947C78.7907 10.6513 77.782 9.4587 76.3362 8.56037C75.0446 7.75824 73.3865 7.51491 71.8219 8.02703C71.3296 10.722 71.413 10.9852 73.3186 12.6361ZM87.7953 16.7699C88.8082 17.1462 90.2724 16.8958 90.7124 17.8549C91.1976 18.9131 89.0317 19.0008 88.5238 19.9657C88.7205 20.2528 88.9383 20.5726 89.1505 20.8852C89.1208 21.0097 89.1307 21.171 89.0614 21.2219C88.0457 21.9618 87.8066 22.986 87.8632 24.1758C87.9297 25.5848 87.9396 26.9981 87.924 28.4086C87.9098 29.6436 87.8193 30.8786 87.7755 32.1137C87.7571 32.6329 87.7712 33.1549 87.7712 33.7519C88.3258 34.073 88.8747 34.3899 89.466 34.7309C89.3769 35.8485 88.2154 35.806 87.5972 36.3931C87.7967 36.8854 88.4602 37.3367 88.2522 38.0059C88.0796 38.5619 87.2746 38.651 86.7823 38.9764C86.8502 39.0443 86.9181 39.1122 86.986 39.1801C86.5645 40.4024 86.2221 41.66 85.6987 42.8371C85.3238 43.6774 84.7084 44.4102 84.11 45.3298C84.1694 45.4571 84.308 45.7499 84.4467 46.0456C84.0902 46.7445 83.4691 47.0274 82.7335 47.1208C81.6116 47.2637 80.569 47.6598 79.5461 48.121C77.4213 49.0801 75.1662 49.431 72.8617 49.5074C70.6859 49.5781 68.5087 49.5951 66.3329 49.6248C66.0414 49.629 65.7486 49.5682 65.4798 49.5413C64.962 48.6953 65.0101 48.278 65.7047 48.0092C66.1942 47.8196 66.7332 47.7588 67.2354 47.5975C67.5481 47.4971 67.8353 47.3132 68.2017 47.1335C67.2722 46.1772 65.9198 46.7148 65.0129 45.8702C64.7498 44.5474 64.8672 43.2459 65.7401 42.018C64.3961 40.0147 64.962 37.8121 65.0794 35.666C65.1063 35.1694 65.419 34.6729 65.6566 34.206C66.0598 33.4152 66.2013 32.6286 65.6425 31.876C65.1785 31.2479 65.2082 30.59 65.269 29.8629C65.344 28.9886 65.3383 28.0931 65.2464 27.2188C64.8234 23.2251 64.8389 19.2328 65.2195 15.2392C65.2478 14.9463 65.269 14.6521 65.2832 14.3578C65.3468 13.11 65.3454 13.11 65.8971 12.0122C65.8264 11.8722 65.7458 11.7194 65.6722 11.5609C65.6 11.4067 65.5378 11.2469 65.4444 11.029C65.8094 10.5919 66.1744 10.1547 66.5097 9.75296C66.4517 9.56198 66.4531 9.40494 66.3795 9.34977C65.3426 8.58866 64.9323 7.58847 64.996 6.29685C65.0639 4.95855 64.8135 3.6061 65.1077 2.30882C65.6863 1.82358 66.306 1.65099 66.961 1.65948C71.1924 1.7189 75.435 1.60855 79.5928 2.66533C80.4827 2.89168 81.1433 3.26374 81.7729 3.98807C82.7306 5.09012 83.8666 6.02806 84.6702 7.28431C84.9362 7.70023 85.4851 7.93366 86.0057 8.32836C85.9802 8.85604 85.9519 9.42758 85.9194 10.108C87.1643 12.0108 87.3015 14.3437 87.7953 16.7699Z" fill="white"/>
<path d="M44.9079 34.7055C47.5223 35.1002 50.9826 34.9672 52.4016 34.4438C52.4256 33.6855 52.942 33.2583 53.6182 32.9442C53.7314 32.8919 53.7611 32.657 53.8248 32.5184C53.3028 32.3585 52.8147 32.21 52.2545 32.0402C51.9927 30.5336 51.8371 29.0637 51.4764 27.6476C50.3673 23.3059 49.7052 18.8849 48.9922 14.4711C48.9059 13.9434 48.78 13.4313 48.3598 12.7621C47.9708 15.7556 47.4346 18.4591 47.2804 21.1485C47.7741 21.4724 48.1547 21.7228 48.6597 22.0553C48.2155 22.4457 47.8463 22.7711 47.5166 23.0611C47.6015 23.395 47.6581 23.6199 47.7218 23.8732C47.3356 24.2 46.9437 24.5324 46.5306 24.8833C46.1614 28.1583 45.2036 31.323 44.9079 34.7055ZM43.987 11.3573C44.3449 11.2229 44.7155 11.0843 45.0862 10.9457C44.3307 9.50549 44.3463 9.50832 44.7283 7.81776C45.1555 5.92772 45.8289 4.09003 45.9322 2.12926C45.9463 1.85905 46.1316 1.59733 46.2547 1.2861C47.5718 1.16868 48.8549 1.04135 50.1409 0.9494C50.3588 0.933838 50.5865 1.06823 50.861 1.14746C51.1269 1.57611 51.4 2.0175 51.5613 2.27639C52.536 3.06862 53.8587 2.58337 54.4953 3.62318C54.0059 4.55688 54.0059 4.55688 52.7227 5.52877C52.9123 5.85557 53.1033 6.1852 53.324 6.56716C53.0198 7.02977 52.7355 7.45842 52.3846 7.99035C52.6548 10.0035 53.034 12.0873 53.6607 14.1075C54.7797 17.7051 55.7346 21.3394 56.4052 25.0488C56.4759 25.4406 56.6485 25.8127 56.7829 26.2187C57.4563 26.339 58.0689 26.4493 58.7861 26.5781C58.448 27.3873 57.6218 27.3363 57.1578 28.0097C57.1479 28.1738 57.0503 28.5318 57.121 28.8529C58.083 33.1536 59.0677 37.4486 60.0678 41.8384C60.5248 41.9304 61.0157 42.028 61.5971 42.144C61.4373 42.5557 61.3184 42.8612 61.1756 43.2291C61.9734 43.4186 63.2212 43.0183 63.6074 43.8091C63.6074 43.8091 61.6184 44.8828 60.7908 45.7529C60.9676 46.7983 61.1487 47.8735 61.3241 48.9105C59.9759 49.4891 57.6388 49.7833 55.7926 49.6306C55.3201 48.7846 55.1348 47.8169 55.0626 46.8309C54.9452 45.2068 54.1643 43.7256 54.1601 42.0549C54.1586 41.3008 53.5786 40.5496 53.2589 39.797C51.5033 39.4193 46.4386 39.4631 44.2869 39.8904C43.8186 41.1112 43.5512 42.4326 43.3334 43.7525C43.2626 44.1826 43.4649 44.6678 43.5923 45.1148C43.6842 45.4431 44.0619 45.7232 44.0054 46.0952C43.8964 46.8111 43.0929 47.1605 42.6402 47.6896C43.4027 48.8058 45.1937 48.5441 45.5728 50.0465C43.2343 50.5911 38.7427 50.3393 36.1241 49.54C35.9925 47.5354 36.8611 45.8519 38.0523 44.2505C37.3492 42.3335 37.9052 40.4775 38.2504 38.6483C38.7724 35.8825 39.5462 33.1635 40.1093 30.4034C40.2861 29.5376 40.5846 28.8784 41.4985 28.4723C40.6737 27.3236 40.8647 26.1918 41.1703 25.0318C41.4249 24.067 41.6103 23.0823 41.7899 22.0991C42.0205 20.8273 42.2115 19.5498 42.4265 18.2752C42.5242 17.6966 42.6161 17.1137 42.7491 16.5422C43.1339 14.8856 43.5371 13.2332 43.987 11.3573Z" fill="white"/>
<path d="M181.247 8.96597C182.085 8.16525 182.668 7.60927 183.393 6.91607C182.932 6.68972 182.662 6.51288 182.365 6.41951C181.297 6.0814 181.09 5.89183 181.035 4.8591C180.991 4.04565 181.026 3.22796 181.026 2.6253C181.476 1.95473 181.96 1.99434 182.428 1.94058C186.24 1.50061 190.059 1.51193 193.885 1.65057C194.766 1.68169 195.652 1.61945 196.532 1.67462C196.983 1.70291 197.615 1.75101 197.83 2.03961C198.412 2.81911 199.234 2.80921 200.016 2.99029C200.397 3.078 200.866 3.01292 201.032 3.675C200.814 3.85325 200.554 4.06404 200.296 4.27766C200.118 4.42479 199.79 4.57758 199.792 4.72471C199.808 5.57635 199.115 5.88051 198.652 6.37707C198.465 6.57654 198.396 6.88636 198.249 7.19618C195.703 7.29521 193.249 8.05207 190.689 7.58664C189.864 7.43668 188.932 7.3518 188.069 7.8328C187.441 9.4314 188.029 11.0611 187.838 12.63C188.438 12.995 188.925 13.2907 189.407 13.5821C189.232 14.4988 188.325 14.3248 187.852 14.9091C187.531 15.6221 187.691 16.3917 188.149 17.1316C187.644 18.7429 187.844 20.3359 188.157 22.0689C191.054 22.1948 193.88 21.7647 196.584 22.3617C197.311 23.5373 196.911 25.3439 197.124 26.6087C197.362 26.8591 198.456 26.9057 198.403 27.4773C198.403 27.4773 197.968 27.7744 197.672 27.8423C196.933 28.0134 195.783 27.9413 195.028 27.9597C193.085 28.0092 191.142 27.9809 189.198 27.9922C188.793 27.9951 188.39 28.0403 187.864 28.0729C187.105 30.4071 187.718 32.7286 187.652 35.0459C188.302 35.4802 189.464 35.5014 189.553 36.3163C189.614 36.8652 188.867 37.0364 188.514 37.4056C188.633 37.5938 188.776 37.8201 188.99 38.1611C188.67 38.4978 188.328 38.8585 187.988 39.2164C187.925 41.1786 187.862 43.1182 187.796 45.1836C188.022 45.4496 188.319 45.799 188.681 46.2263C188.091 47.0708 187.349 47.8786 187.676 48.9807C187.337 49.108 187.178 49.2169 187.013 49.224C185.314 49.2905 183.614 49.3442 181.914 49.3895C181.816 49.3909 181.714 49.2749 181.489 49.1377C181.433 48.8434 181.29 48.4516 181.294 48.0611C181.312 46.3253 180.742 44.5569 181.662 42.8663C181.915 42.4009 181.776 41.835 181.519 41.3342C181.157 40.6311 181.178 39.8842 181.216 39.1018C181.325 36.868 181.341 34.6286 181.384 32.3919C181.413 30.9206 181.411 29.4494 181.452 27.9781C181.468 27.4051 181.469 26.8576 181.872 26.3186C182.3 25.7499 181.967 24.8106 182.853 24.3168C182.325 23.8401 181.904 23.4581 181.433 23.0323C181.004 21.4125 181.145 19.7092 181.162 18.0144C181.185 15.898 181.222 13.7816 181.246 11.6652C181.256 10.7273 181.247 9.78932 181.247 8.96597Z" fill="white"/>
<path d="M168.201 8.92482C169.381 9.20068 170.419 9.0875 171.261 9.62933C171.349 10.0877 171.078 10.2178 170.787 10.2716C169.801 10.4541 168.832 10.6691 167.871 11.3454C167.863 12.8704 167.852 14.4506 167.846 16.0308C167.842 17.8572 167.86 23.5698 167.835 25.3961C167.812 26.9353 168.134 28.3189 169.394 29.346C169.473 29.411 169.487 29.5553 169.57 29.7576C169.36 29.9713 169.145 30.2443 168.877 30.4494C168.219 30.9573 167.918 31.6279 167.905 32.4371C167.843 36.2638 167.788 36.2058 167.737 40.034C167.736 40.2024 167.815 40.3721 167.877 40.6282C168.317 40.7725 169.452 40.4004 169.519 41.17C169.519 41.17 168.395 41.7713 167.883 42.0457C167.665 42.6724 167.762 43.3416 167.992 44.1239C169.662 44.2173 171.295 44.288 172.925 44.4026C174.55 44.5172 176.174 44.1649 177.923 44.1847C177.989 45.3702 178.043 46.3492 178.101 47.3735C178.711 47.8049 179.312 48.2308 180.028 48.7372C178.916 49.3837 177.834 49.3866 176.808 49.4927C174.996 49.6794 173.169 49.8166 171.35 49.8223C169.47 49.828 167.587 49.6738 165.71 49.5493C164.592 49.4757 163.486 49.3427 162.367 49.5563C162.041 49.6186 161.688 49.5309 161.444 49.5181C161.313 49.3767 161.241 49.3356 161.238 49.2904C161.102 46.8854 160.884 44.479 160.888 42.074C160.89 41.1205 161.389 40.1684 161.698 39.089C160.666 38.0435 160.836 36.6203 160.945 35.1094C161.369 34.7614 161.846 34.3724 162.429 33.8971C161.884 33.542 161.458 33.2647 160.893 32.8969C160.956 31.816 160.976 30.6475 161.103 29.4917C161.357 27.1914 161.195 24.9095 161.009 22.6163C160.894 21.2185 160.987 19.8024 160.987 18.3283C161.511 17.976 162.029 17.6266 162.566 17.2645C162.454 17.0749 162.405 16.8698 162.276 16.7863C161.017 15.9601 160.904 14.6671 160.877 13.3571C160.86 12.5945 160.939 11.8306 160.978 11.0412C161.351 10.4909 162.208 10.2886 162.218 9.46664C161.78 8.69139 161.173 7.97697 160.97 7.16352C160.782 6.40099 161.047 5.53237 161.065 4.71043C161.077 4.18558 160.98 3.6579 160.969 3.13163C160.962 2.79493 161.021 2.45682 161.062 1.98007C163.283 2.02392 165.414 1.34628 167.71 2.089C167.765 3.21934 167.803 4.38081 167.885 5.53945C167.963 6.64432 168.089 7.74496 168.201 8.92482Z" fill="white"/>
</svg>
