
<?xml version="1.0" encoding="UTF-8" standalone="no"?>
<svg
   version="1.1"
   id="svg2"
   width="75.59053"
   height="188.976"
   viewBox="0 0 75.59053 188.976"
   sodipodi:docname="MW-xl-bic-linkshandig.ai"
   xmlns:inkscape="http://www.inkscape.org/namespaces/inkscape"
   xmlns:sodipodi="http://sodipodi.sourceforge.net/DTD/sodipodi-0.dtd"
   xmlns="http://www.w3.org/2000/svg"
   xmlns:svg="http://www.w3.org/2000/svg">
  <defs
     id="defs6">
    <clipPath
       clipPathUnits="userSpaceOnUse"
       id="clipPath16">
      <path
         d="M 0,141.732 H 56.693 V 0 H 0 Z"
         id="path14" />
    </clipPath>
  </defs>
  <sodipodi:namedview
     id="namedview4"
     pagecolor="#ffffff"
     bordercolor="#000000"
     borderopacity="0.25"
     inkscape:showpageshadow="2"
     inkscape:pageopacity="0.0"
     inkscape:pagecheckerboard="0"
     inkscape:deskcolor="#d1d1d1" />
  <g
     id="g8"
     inkscape:groupmode="layer"
     inkscape:label="MW-xl-bic-linkshandig"
     transform="matrix(1.3333333,0,0,-1.3333333,0,188.976)">
    <g
       id="g10">
      <g
         id="g12"
         clip-path="url(#clipPath16)">
        <g
           id="g18"
           transform="translate(45.2469,139.617)">
          <path
             d="m 0,0 c 0.392,-1.711 0.014,-5.403 -0.713,-6.878 -0.476,-0.059 -0.734,0.228 -0.942,0.617 -0.212,0.397 -0.439,0.785 -0.653,1.166 -0.291,0 -0.521,0.063 -0.69,-0.011 -0.793,-0.347 -1.615,-0.356 -2.453,-0.298 -0.965,0.066 -1.914,-0.054 -2.847,-0.294 -2.053,-0.529 -4.092,-1.113 -6.157,-1.586 -1.497,-0.344 -3.03,-0.525 -4.54,-0.819 -0.813,-0.159 -1.611,-0.394 -2.41,-0.617 -0.132,-0.037 -0.233,-0.188 -0.45,-0.372 2.291,-0.421 4.421,-0.986 6.636,-1.04 0.416,-0.01 0.831,-0.058 1.246,-0.089 0.68,-0.05 1.317,-0.198 1.733,-0.81 0.346,0.127 0.637,0.286 0.946,0.333 0.28,0.044 0.584,-0.005 0.868,-0.062 1.385,-0.278 2.774,-0.547 4.149,-0.869 1.5,-0.352 2.996,-0.693 4.533,-0.856 0.652,-0.069 1.288,-0.283 1.964,-0.438 0.102,-1.753 0.497,-3.426 -0.059,-5.082 -0.502,-0.101 -0.482,0.406 -0.842,0.614 -0.708,0.098 -1.453,-0.244 -2.247,-0.304 -0.285,-0.305 -0.565,-0.604 -0.803,-0.858 -0.163,-0.014 -0.271,-0.059 -0.323,-0.023 -0.939,0.643 -1.993,0.763 -3.093,0.731 -0.957,-0.028 -1.915,0.012 -2.87,-0.035 -0.534,-0.026 -1.063,-0.167 -1.609,-0.259 -0.223,-0.425 -0.195,-1.107 -0.652,-1.246 -0.374,-0.113 -0.639,0.423 -0.974,0.511 -0.309,0.08 -0.659,-0.01 -0.991,-0.007 -2.165,0.024 -4.304,-0.276 -6.45,-0.495 -0.245,-0.024 -0.513,-0.073 -0.717,-0.198 -0.498,-0.304 -0.979,-0.327 -1.548,-0.201 -0.425,0.094 -0.903,-0.022 -1.353,-0.08 -1.771,-0.229 -3.537,-0.51 -5.314,-0.684 -0.537,-0.053 -0.747,-0.546 -1.136,-0.629 -0.603,-0.128 -0.607,-0.6 -0.852,-1.061 -0.155,0.141 -0.322,0.242 -0.418,0.39 -0.179,0.276 -0.318,0.579 -0.489,0.9 -0.372,0.058 -0.735,0.115 -1.085,0.169 -0.065,0.076 -0.151,0.132 -0.167,0.202 -0.274,1.226 -0.447,2.455 -0.005,3.788 1.266,0.203 2.604,0.418 3.947,0.634 0.272,-0.407 0.271,-1.166 0.788,-1.177 0.49,-0.01 0.545,0.745 0.873,1.192 1.003,0.057 2.079,0.112 3.153,0.18 0.705,0.045 1.409,0.136 2.115,0.154 0.488,0.013 0.978,-0.062 1.619,-0.109 0.154,0.079 0.443,0.226 0.727,0.37 0.435,-0.183 0.819,-0.618 1.296,-0.543 1.173,0.183 1.987,0.817 3.068,0.9 1.193,0.091 2.382,0.219 3.799,0.352 -0.84,0.531 -1.596,0.6 -2.31,0.708 -1.314,0.199 -2.642,0.342 -3.969,0.429 -2.583,0.17 -5.11,0.669 -7.637,1.194 -2.075,0.431 -4.159,0.816 -6.235,1.238 -0.439,0.089 -0.928,0.061 -1.326,0.494 -0.085,0.842 -0.176,1.746 -0.262,2.608 0.754,0.572 2.752,1.295 4.591,1.624 1.588,0.284 3.183,0.593 4.858,0.168 0.086,-0.156 0.205,-0.37 0.328,-0.591 0.064,0.035 0.149,0.052 0.173,0.099 0.187,0.367 0.361,0.74 0.485,0.998 2.266,0.566 4.398,1.117 6.54,1.625 1.01,0.24 2.041,0.383 3.057,0.598 0.386,0.081 0.812,0.138 1.13,0.619 -1.295,0.29 -2.534,0.24 -3.751,0.357 -1.238,0.119 -2.38,-0.407 -3.696,-0.337 -1.109,0.058 -2.005,0.585 -3.041,0.617 -1.207,0.039 -2.415,0.024 -3.623,0.033 -1.117,0.008 -2.133,-0.253 -2.957,-1.069 -0.143,-0.141 -0.349,-0.217 -0.48,-0.296 -0.598,-0.005 -0.591,0.598 -0.977,0.798 -0.913,-0.112 -1.478,0.797 -2.34,0.813 -0.425,2.555 -0.437,2.953 -0.125,3.96 0.07,0.042 0.138,0.115 0.211,0.12 1.953,0.148 3.91,0.269 5.84,-0.171 0.659,-0.151 1.303,-0.236 1.975,-0.178 0.371,0.032 0.748,-0.001 1.122,-0.005 0.587,-0.006 0.891,-0.398 1.578,-0.574 0.363,-0.092 0.582,0.302 0.733,0.38 1.927,-0.053 3.755,-0.084 5.582,-0.158 1.787,-0.073 3.604,-0.013 5.349,-0.334 1.819,-0.335 3.666,0.166 5.514,-0.398 0.316,-0.467 1.054,-1.56 1.054,-1.56 0.58,0.035 0.505,0.986 0.789,1.542 0.342,0.012 0.728,0.111 1.064,0.021 C -2.11,0.266 -0.965,0.602 0,0"
             style="fill:#ffffff;fill-opacity:1;fill-rule:nonzero;stroke:none"
             id="path20" />
        </g>
        <g
           id="g22"
           transform="translate(21.2517,70.6249)">
          <path
             d="m 0,0 c 0.611,-0.453 1.284,-0.57 1.954,-0.664 1.81,-0.252 3.624,-0.471 5.437,-0.701 0.165,-0.021 0.332,-0.042 0.497,-0.039 1.888,0.042 3.719,-0.344 5.56,-0.685 0.687,-0.128 1.406,-0.084 2.141,-0.119 0.246,-0.379 0.489,-0.754 0.748,-1.152 0.609,0.12 0.632,0.78 1.198,1.096 0.472,-0.098 1.089,-0.171 1.67,-0.359 0.763,-0.247 1.529,-0.362 2.328,-0.382 0.7,-0.017 1.399,-0.121 2.069,-0.184 0.262,-1.153 0.276,-2.666 0.046,-3.522 -0.917,-0.569 -2.05,-0.539 -3.03,-0.94 -0.162,-0.463 -0.309,-0.883 -0.471,-1.345 -0.831,0.077 -0.981,0.92 -1.674,1.274 -1.071,-0.213 -2.274,-0.36 -3.419,-0.701 -2.044,-0.609 -4.165,-0.754 -6.241,-1.16 -2.603,-0.51 -5.225,-0.915 -8.096,-1.41 0.7,-0.254 1.16,-0.388 1.651,-0.424 0.631,-0.047 1.259,-0.106 1.647,-0.773 0.956,0.807 1.981,0.559 2.931,0.41 1.934,-0.302 3.868,-0.534 5.823,-0.657 1.49,-0.094 2.97,-0.352 4.486,-0.541 0.134,-0.244 0.271,-0.493 0.404,-0.736 0.489,0.079 1.013,-0.023 1.376,0.541 1.618,-0.204 3.263,-0.408 4.906,-0.627 0.153,-0.02 0.292,-0.142 0.479,-0.239 0.188,-1.286 0.132,-2.555 -0.23,-3.894 -0.412,-0.087 -0.845,-0.178 -1.248,-0.263 -0.687,-0.365 -0.645,-1.285 -1.31,-1.629 -0.647,0.055 -0.586,0.782 -1.073,1.058 -0.181,-0.083 -0.391,-0.18 -0.659,-0.304 -0.12,0.261 -0.229,0.518 -0.354,0.768 -0.315,0.634 -0.778,1.051 -1.521,1.142 -1.521,0.188 -3,0.644 -4.569,0.564 -0.772,-0.04 -1.557,0.227 -2.339,0.328 -0.577,0.075 -1.158,0.132 -1.739,0.152 -0.768,0.027 -1.383,-0.227 -1.679,-1.02 -0.063,-0.17 -0.245,-0.295 -0.472,-0.555 -0.329,0.716 -0.6,1.304 -0.875,1.903 -0.485,0.144 -1.012,0.081 -1.391,0.503 -0.136,0.151 -0.459,0.154 -0.702,0.188 -2.88,0.411 -5.764,0.804 -8.643,1.227 -1.271,0.187 -2.533,0.431 -3.685,0.629 -0.734,-0.238 -0.741,-0.889 -1.135,-1.378 -0.138,0.132 -0.32,0.231 -0.389,0.383 -0.494,1.075 -0.683,3.222 -0.405,4.61 2.406,0.428 4.828,0.962 7.456,1.055 0.209,-0.301 0.48,-0.691 0.741,-1.067 0.408,0.135 0.382,0.448 0.414,0.734 0.054,0.494 0.37,0.769 0.827,0.775 0.485,0.007 0.862,0.242 1.288,0.389 0.7,0.242 1.448,0.35 2.177,0.503 0.773,0.162 1.548,0.319 2.324,0.462 0.898,0.165 1.791,0.387 2.716,0.326 0.533,-0.036 1.066,-0.072 1.799,-0.122 1.171,0.754 2.776,0.731 4.268,1.168 -1.144,0.328 -2.278,0.454 -3.416,0.548 -0.953,0.078 -1.908,0.125 -2.86,0.205 -0.244,0.021 -0.482,0.119 -0.724,0.175 -0.445,0.105 -0.89,0.208 -1.337,0.305 -1.028,0.225 -1.899,0.038 -2.47,-0.945 -0.033,-0.057 -0.14,-0.071 -0.299,-0.146 -0.198,0.429 -0.397,0.858 -0.617,1.334 -3.236,0.742 -6.529,1.122 -9.852,1.528 -0.238,-0.333 -0.447,-0.628 -0.735,-1.032 -0.186,0.402 -0.329,0.713 -0.495,1.074 -0.394,0.12 -0.822,0.25 -1.3,0.395 -0.109,1.146 -0.096,2.247 0.188,3.427 0.346,0.107 0.689,0.242 1.044,0.317 0.529,0.112 1.089,0.113 1.596,0.282 0.927,0.308 1.794,0.278 2.586,-0.208 0.43,0.061 0.547,0.609 1.016,0.491 0.109,-0.027 0.262,0.004 0.359,0.065 1.386,0.871 3.01,0.836 4.527,1.206 0.2,0.048 0.417,0.048 0.606,0.123 1.128,0.452 2.321,0.641 3.497,0.907 0.752,0.17 1.472,0.276 2.16,-0.155 2.969,1.484 6.207,1.629 9.31,2.34 0.364,-0.356 0.531,-1.099 1.073,-1.048 0.677,0.063 0.735,1.052 1.059,1.516 1.51,0.281 2.969,0.553 4.476,0.833 0.112,-0.26 0.235,-0.435 0.259,-0.624 C 23.805,6.432 23.832,5.352 23.638,4.276 23.609,4.113 23.606,3.886 23.501,3.809 23.042,3.468 23.045,2.954 22.915,2.482 22.89,2.388 22.738,2.328 22.586,2.204 22.257,2.508 21.932,2.808 21.54,3.17 21.305,2.942 21.086,2.729 20.812,2.463 20.027,3.187 19.101,3.171 18.137,2.957 16.477,2.587 14.814,2.228 13.133,1.86 12.897,1.447 12.674,1.057 12.482,0.721 11.703,0.419 11.507,1.123 10.986,1.448 10.703,1.387 10.34,1.325 9.986,1.229 8.495,0.824 6.987,0.569 5.434,0.573 4.815,0.574 4.195,0.461 3.575,0.394 2.383,0.265 1.192,0.132 0,0"
             style="fill:#ffffff;fill-opacity:1;fill-rule:nonzero;stroke:none"
             id="path24" />
        </g>
        <g
           id="g26"
           transform="translate(31.9305,37.8741)">
          <path
             d="M 0,0 C 2.068,-0.045 4.062,0.041 6.017,0.523 6.539,0.652 7.049,0.762 7.514,0.603 7.945,0.988 8.286,1.35 8.682,1.637 10.001,2.591 9.857,4.039 8.99,5.004 8.431,5.625 7.826,6.16 7.001,6.459 6.134,6.773 5.268,7.057 4.353,7.143 2.945,7.276 1.534,7.371 0.124,7.48 0.001,7.49 -0.122,7.481 -0.213,7.481 -0.491,7.312 -0.738,7.161 -0.967,7.022 -1.235,7.083 -1.472,7.138 -1.67,7.183 -1.961,6.894 -2.214,6.642 -2.523,6.335 -2.8,6.758 -3.023,7.098 -3.242,7.432 -3.433,7.473 -3.599,7.551 -3.756,7.537 -5.168,7.413 -6.578,7.431 -7.99,7.55 -8.361,7.581 -8.746,7.589 -9.112,7.531 c -1.521,-0.239 -3.044,-0.473 -4.551,-0.784 -0.6,-0.124 -1.199,-0.378 -1.729,-0.689 -1.204,-0.708 -1.575,-1.973 -0.95,-3.093 0.157,-0.281 0.408,-0.521 0.652,-0.74 1.046,-0.942 2.263,-1.543 3.567,-1.713 0.386,-0.331 0.692,-0.593 1.018,-0.873 0.265,0.247 0.471,0.44 0.681,0.635 1.109,0.121 2.152,-0.25 3.223,-0.345 1.071,-0.094 2.146,-0.131 3.15,-0.188 0.403,-0.376 0.371,-1.062 1.045,-1.053 0.315,0.317 0.628,0.633 0.908,0.914 0.427,-0.104 0.741,-0.181 1.012,-0.248 C -0.706,-0.42 -0.384,-0.229 0,0 M 9.331,-4.202 C 8.932,-4.065 8.666,-3.974 8.341,-3.862 6.789,-4.493 5.087,-4.672 3.396,-4.833 2.436,-4.924 1.606,-5.129 0.981,-5.91 0.829,-6.099 0.597,-6.223 0.428,-6.356 c -0.407,-0.11 -0.668,0.068 -0.917,0.318 -0.49,0.493 -1.09,0.718 -1.783,0.778 -1.201,0.105 -2.398,0.262 -3.598,0.383 -0.992,0.101 -1.986,0.192 -2.98,0.268 -0.786,0.061 -1.575,0.091 -2.361,0.135 -0.246,-0.333 -0.458,-0.621 -0.648,-0.879 -0.679,0.108 -0.675,0.775 -1.133,1.085 -0.187,-0.037 -0.421,-0.083 -0.727,-0.144 -0.507,0.722 -1.304,1.022 -2.134,1.313 -1.655,0.58 -3.043,1.528 -3.891,3.131 -0.077,0.145 -0.177,0.279 -0.294,0.461 -0.235,-0.044 -0.467,-0.087 -0.7,-0.13 -0.047,0.062 -0.12,0.118 -0.138,0.188 -0.331,1.297 -0.346,2.628 -0.379,3.953 -0.009,0.365 0.078,0.75 0.196,1.1 0.606,1.797 2.253,4.453 4.513,5.15 0.222,-0.275 0.466,-0.578 0.717,-0.889 0.452,0.558 0.862,1.07 1.279,1.576 0.272,0.329 0.608,0.537 1.037,0.645 1.252,0.317 2.508,0.592 3.802,0.676 0.634,0.041 1.232,0.017 1.816,-0.293 0.58,-0.308 1.224,-0.216 1.835,-0.096 1.364,0.267 2.696,0.276 4.079,-10e-4 1.46,-0.292 2.966,-0.49 4.464,-0.313 0.923,0.11 1.634,-0.087 2.163,-0.881 0.132,-0.196 0.375,-0.319 0.662,-0.554 0.113,0.414 0.205,0.751 0.299,1.093 0.068,0.023 0.16,0.089 0.22,0.068 1.878,-0.663 3.819,-1.21 5.48,-2.348 1.386,-0.949 2.276,-2.282 2.517,-3.988 0.099,-0.698 0.254,-1.399 0.263,-2.099 0.025,-2.126 -0.719,-3.9 -2.56,-5.097 -0.92,-0.597 -1.724,-1.292 -2.196,-2.455"
             style="fill:#ffffff;fill-opacity:1;fill-rule:nonzero;stroke:none"
             id="path28" />
        </g>
        <g
           id="g30"
           transform="translate(37.4571,90.2737)">
          <path
             d="m 0,0 c -0.846,-0.084 -1.055,0.703 -1.592,0.976 -0.924,0.017 -1.829,0.097 -2.735,-0.177 -0.329,-0.1 -0.784,-0.062 -1.088,0.094 -0.709,0.366 -1.446,0.38 -2.192,0.337 -1.282,-0.072 -2.561,-0.189 -3.798,-0.284 -0.272,-0.367 -0.487,-0.655 -0.746,-1.005 -0.247,0.195 -0.444,0.332 -0.618,0.493 -0.18,0.167 -0.338,0.359 -0.547,0.586 -1.189,0.053 -2.389,0.129 -3.591,0.146 -0.355,0.005 -0.752,-0.085 -1.06,-0.256 -0.53,-0.293 -0.988,-0.297 -1.525,-0.02 -0.762,0.394 -1.572,0.413 -2.478,0.128 0,-0.563 -0.056,-1.106 0.011,-1.634 0.146,-1.163 0.693,-2.206 1.618,-2.854 0.848,-0.594 1.708,-1.154 2.337,-1.844 1.687,-0.101 3.26,-0.269 4.832,-0.258 0.831,0.006 1.458,-0.486 2.224,-0.595 0.267,-0.039 0.494,-0.361 0.788,-0.592 0.213,0.326 0.408,0.623 0.626,0.957 1.064,0.046 2.1,0.081 3.135,0.138 0.913,0.051 1.832,0.072 2.732,0.21 0.676,0.104 1.303,0.126 1.857,-0.241 0.738,0.47 1.412,0.945 2.122,1.293 1.091,0.534 1.934,1.247 2.569,2.269 C 3.448,-1.22 3.62,-0.048 3.258,1.058 1.353,1.406 1.167,1.347 0,0 m -2.922,-10.233 c -0.266,-0.716 -0.089,-1.751 -0.767,-2.062 -0.748,-0.343 -0.81,1.188 -1.492,1.547 -0.203,-0.139 -0.429,-0.293 -0.65,-0.443 -0.088,0.021 -0.202,0.014 -0.238,0.063 -0.523,0.718 -1.247,0.887 -2.088,0.847 -0.996,-0.047 -1.995,-0.054 -2.992,-0.043 -0.873,0.01 -1.746,0.074 -2.619,0.105 -0.367,0.013 -0.736,0.003 -1.158,0.003 -0.227,-0.392 -0.451,-0.78 -0.692,-1.198 -0.79,0.063 -0.76,0.884 -1.175,1.321 -0.348,-0.141 -0.667,-0.61 -1.14,-0.463 -0.393,0.122 -0.456,0.691 -0.686,1.039 -0.048,-0.048 -0.096,-0.096 -0.144,-0.144 -0.864,0.298 -1.753,0.54 -2.585,0.91 -0.594,0.265 -1.112,0.7 -1.762,1.123 -0.09,-0.042 -0.297,-0.14 -0.506,-0.238 -0.494,0.252 -0.694,0.691 -0.76,1.211 -0.101,0.793 -0.381,1.53 -0.707,2.253 -0.678,1.502 -0.926,3.096 -0.98,4.725 -0.05,1.538 -0.062,3.077 -0.083,4.615 -0.003,0.206 0.04,0.413 0.059,0.603 0.598,0.366 0.893,0.332 1.083,-0.159 0.134,-0.346 0.177,-0.727 0.291,-1.082 0.071,-0.221 0.201,-0.424 0.328,-0.683 0.676,0.657 0.296,1.613 0.893,2.254 0.935,0.186 1.855,0.103 2.723,-0.514 1.416,0.95 2.973,0.55 4.49,0.467 0.351,-0.019 0.702,-0.24 1.032,-0.408 0.559,-0.285 1.115,-0.385 1.647,0.01 0.444,0.328 0.909,0.307 1.423,0.264 0.618,-0.053 1.251,-0.049 1.869,0.016 2.823,0.299 5.645,0.288 8.468,0.019 C -1.633,5.705 -1.425,5.69 -1.217,5.68 -0.335,5.635 -0.335,5.636 0.441,5.246 0.54,5.296 0.648,5.353 0.76,5.405 0.869,5.456 0.982,5.5 1.136,5.566 1.445,5.308 1.754,5.05 2.038,4.813 2.173,4.854 2.284,4.853 2.323,4.905 2.861,5.638 3.568,5.928 4.481,5.883 5.427,5.835 6.383,6.012 7.3,5.804 7.643,5.395 7.765,4.957 7.759,4.494 7.717,1.503 7.795,-1.496 7.048,-4.435 6.888,-5.064 6.625,-5.531 6.113,-5.976 5.334,-6.653 4.671,-7.456 3.783,-8.024 3.489,-8.212 3.324,-8.6 3.045,-8.968 2.672,-8.95 2.268,-8.93 1.787,-8.907 0.442,-9.787 -1.207,-9.884 -2.922,-10.233"
             style="fill:#ffffff;fill-opacity:1;fill-rule:nonzero;stroke:none"
             id="path32" />
        </g>
        <g
           id="g34"
           transform="translate(21.8568,110.3578)">
          <path
             d="m 0,0 c -0.279,-1.848 -0.185,-4.294 0.185,-5.297 0.536,-0.017 0.838,-0.382 1.06,-0.86 0.037,-0.08 0.203,-0.101 0.301,-0.146 0.113,0.369 0.218,0.714 0.338,1.11 1.065,0.185 2.104,0.295 3.105,0.55 3.069,0.784 6.194,1.252 9.314,1.756 0.373,0.061 0.735,0.15 1.208,0.447 -2.116,0.275 -4.027,0.654 -5.928,0.763 C 9.354,-2.026 9.177,-2.295 8.942,-2.652 8.666,-2.338 8.436,-2.077 8.231,-1.844 7.995,-1.904 7.836,-1.944 7.657,-1.989 7.426,-1.716 7.191,-1.439 6.943,-1.147 4.628,-0.886 2.391,-0.209 0,0 m 16.504,0.651 c 0.095,-0.253 0.193,-0.515 0.291,-0.777 1.018,0.534 1.016,0.523 2.211,0.253 1.336,-0.302 2.635,-0.778 4.021,-0.851 0.191,-0.01 0.376,-0.141 0.596,-0.228 0.083,-0.931 0.173,-1.838 0.238,-2.747 0.011,-0.154 -0.084,-0.315 -0.14,-0.509 -0.303,-0.188 -0.615,-0.381 -0.798,-0.495 -0.56,-0.689 -0.217,-1.624 -0.952,-2.074 -0.66,0.346 -0.66,0.346 -1.347,1.253 -0.231,-0.134 -0.464,-0.269 -0.734,-0.425 -0.327,0.215 -0.63,0.416 -1.006,0.664 C 17.461,-5.476 15.988,-5.744 14.56,-6.187 12.017,-6.978 9.448,-7.653 6.826,-8.127 6.549,-8.177 6.286,-8.299 5.999,-8.394 5.914,-8.87 5.836,-9.303 5.745,-9.81 c -0.572,0.239 -0.536,0.823 -1.012,1.151 -0.116,0.007 -0.369,0.076 -0.596,0.026 -3.04,-0.68 -6.076,-1.376 -9.179,-2.083 -0.065,-0.323 -0.134,-0.67 -0.216,-1.081 -0.291,0.113 -0.507,0.197 -0.767,0.298 -0.134,-0.564 0.149,-1.446 -0.41,-1.719 0,0 -0.759,1.406 -1.374,1.991 -0.739,-0.125 -1.499,-0.253 -2.232,-0.377 -0.409,0.953 -0.617,2.605 -0.509,3.91 0.598,0.334 1.282,0.465 1.979,0.516 1.148,0.083 2.195,0.635 3.376,0.638 0.533,0.001 1.064,0.411 1.596,0.637 0.267,1.241 0.236,4.821 -0.066,6.342 -0.863,0.331 -1.797,0.52 -2.73,0.674 C -6.699,1.163 -7.042,1.02 -7.358,0.93 -7.59,0.865 -7.788,0.598 -8.051,0.638 -8.557,0.715 -8.804,1.283 -9.178,1.603 -9.967,1.064 -9.782,-0.202 -10.844,-0.47 c -0.385,1.653 -0.207,4.828 0.358,6.679 1.417,0.093 2.607,-0.521 3.739,-1.363 1.355,0.497 2.667,0.104 3.96,-0.14 C -0.832,4.337 1.09,3.79 3.041,3.392 3.653,3.267 4.119,3.056 4.406,2.41 5.218,2.993 6.018,2.858 6.838,2.642 7.52,2.462 8.216,2.331 8.911,2.204 9.81,2.041 10.713,1.906 11.614,1.754 12.023,1.685 12.435,1.62 12.839,1.526 14.01,1.254 15.178,0.969 16.504,0.651"
             style="fill:#ffffff;fill-opacity:1;fill-rule:nonzero;stroke:none"
             id="path36" />
        </g>
        <g
           id="g38"
           transform="translate(40.0517,13.9849)">
          <path
             d="M 0,0 C 0.566,-0.592 0.959,-1.004 1.449,-1.517 1.609,-1.191 1.734,-1 1.8,-0.79 2.039,-0.035 2.173,0.111 2.903,0.15 3.478,0.181 4.056,0.156 4.482,0.156 4.956,-0.162 4.928,-0.504 4.966,-0.835 5.277,-3.529 5.269,-6.229 5.171,-8.933 5.149,-9.556 5.193,-10.182 5.154,-10.804 5.134,-11.123 5.1,-11.57 4.896,-11.722 4.345,-12.133 4.352,-12.714 4.224,-13.267 4.162,-13.536 4.208,-13.868 3.74,-13.985 c -0.126,0.154 -0.275,0.338 -0.426,0.52 -0.104,0.126 -0.212,0.358 -0.316,0.356 -0.602,-0.011 -0.817,0.479 -1.168,0.806 -0.141,0.132 -0.36,0.181 -0.579,0.285 -0.07,1.8 -0.605,3.534 -0.276,5.344 0.106,0.583 0.166,1.242 -0.174,1.852 -1.13,0.444 -2.282,0.028 -3.391,0.163 -0.258,-0.424 -0.467,-0.768 -0.673,-1.109 -0.648,0.124 -0.525,0.765 -0.938,1.099 -0.504,0.227 -1.048,0.114 -1.571,-0.21 -1.139,0.357 -2.265,0.216 -3.49,-0.005 -0.089,-2.048 0.215,-4.046 -0.207,-5.957 -0.831,-0.514 -2.108,-0.231 -3.002,-0.382 -0.177,-0.168 -0.21,-0.941 -0.614,-0.904 0,0 -0.21,0.308 -0.258,0.517 -0.121,0.522 -0.07,1.335 -0.083,1.869 -0.035,1.373 -0.015,2.747 -0.023,4.121 -0.002,0.286 -0.034,0.571 -0.057,0.943 -1.65,0.536 -3.291,0.103 -4.929,0.15 -0.307,-0.46 -0.322,-1.281 -0.898,-1.344 -0.388,-0.043 -0.509,0.485 -0.77,0.734 -0.133,-0.084 -0.293,-0.185 -0.534,-0.336 -0.238,0.226 -0.493,0.468 -0.746,0.708 -1.387,0.045 -2.758,0.089 -4.218,0.136 -0.188,-0.16 -0.435,-0.37 -0.737,-0.626 -0.597,0.417 -1.168,0.942 -1.947,0.711 -0.09,0.239 -0.167,0.352 -0.172,0.468 -0.047,1.201 -0.085,2.403 -0.117,3.605 -10e-4,0.069 0.081,0.141 0.178,0.3 0.208,0.04 0.485,0.141 0.761,0.138 1.227,-0.013 2.477,0.39 3.672,-0.26 0.329,-0.179 0.729,-0.081 1.083,0.101 0.497,0.256 1.025,0.241 1.578,0.214 1.579,-0.077 3.162,-0.088 4.743,-0.119 1.04,-0.02 2.08,-0.019 3.12,-0.048 0.405,-0.011 0.792,-0.012 1.173,-0.297 0.402,-0.302 1.066,-0.067 1.415,-0.693 0.337,0.373 0.607,0.671 0.908,1.004 1.145,0.303 2.349,0.203 3.547,0.191 C -4.9,0.044 -3.404,0.018 -1.908,0.001 -1.245,-0.006 -0.582,0 0,0"
             style="fill:#ffffff;fill-opacity:1;fill-rule:nonzero;stroke:none"
             id="path40" />
        </g>
        <g
           id="g42"
           transform="translate(40.0809,23.2093)">
          <path
             d="m 0,0 c -0.195,-0.834 -0.115,-1.568 -0.498,-2.163 -0.324,-0.062 -0.416,0.129 -0.454,0.335 -0.129,0.697 -0.281,1.382 -0.759,2.061 -1.078,0.006 -2.195,0.014 -3.312,0.018 -1.291,0.003 -5.329,-0.01 -6.62,0.008 -1.088,0.016 -2.066,-0.212 -2.792,-1.102 -0.046,-0.056 -0.148,-0.066 -0.291,-0.125 -0.151,0.149 -0.344,0.301 -0.489,0.49 -0.359,0.465 -0.833,0.678 -1.405,0.687 -2.705,0.044 -2.664,0.083 -5.37,0.119 -0.119,0.001 -0.239,-0.055 -0.42,-0.099 -0.102,-0.311 0.161,-1.113 -0.383,-1.161 0,0 -0.425,0.795 -0.619,1.157 -0.443,0.154 -0.916,0.085 -1.469,-0.077 -0.066,-1.181 -0.116,-2.335 -0.197,-3.487 -0.081,-1.149 0.168,-2.297 0.154,-3.533 -0.838,-0.047 -1.53,-0.085 -2.254,-0.126 -0.305,-0.431 -0.606,-0.856 -0.964,-1.362 -0.457,0.786 -0.459,1.551 -0.534,2.276 -0.132,1.281 -0.229,2.572 -0.233,3.858 -0.004,1.329 0.105,2.66 0.193,3.987 0.052,0.79 0.146,1.572 -0.005,2.363 -0.044,0.23 0.018,0.48 0.027,0.652 0.1,0.093 0.129,0.144 0.161,0.146 1.7,0.096 3.401,0.25 5.101,0.247 0.674,-10e-4 1.347,-0.354 2.11,-0.572 0.739,0.729 1.745,0.609 2.813,0.532 0.246,-0.3 0.521,-0.637 0.857,-1.049 0.251,0.385 0.447,0.686 0.707,1.086 0.764,-0.045 1.59,-0.059 2.407,-0.149 1.626,-0.179 3.239,-0.065 4.86,0.067 0.988,0.081 1.989,0.015 3.031,0.015 0.249,-0.37 0.496,-0.736 0.752,-1.116 0.134,0.079 0.279,0.114 0.338,0.205 0.584,0.89 1.498,0.97 2.424,0.989 0.539,0.012 1.079,-0.044 1.637,-0.071 0.389,-0.264 0.532,-0.87 1.113,-0.877 C 0.165,4.539 0.67,4.968 1.245,5.111 1.784,5.244 2.398,5.057 2.979,5.044 3.35,5.036 3.723,5.104 4.095,5.112 4.333,5.117 4.572,5.075 4.909,5.046 4.878,3.476 5.357,1.97 4.832,0.347 4.033,0.308 3.212,0.281 2.393,0.223 1.612,0.168 0.834,0.079 0,0"
             style="fill:#ffffff;fill-opacity:1;fill-rule:nonzero;stroke:none"
             id="path44" />
        </g>
      </g>
    </g>
  </g>
</svg>
